# WaveFront *.obj file (generated by CINEMA 4D)

mtllib ./Untitled_2.mtl

v -0.5 -0.5 0.5
v -0.5 0.5 0.5
v 0.5 -0.5 0.5
v 0.5 0.5 0.5
v 0.5 -0.5 -0.5
v 0.5 0.5 -0.5
v -0.5 -0.5 -0.5
v -0.5 0.5 -0.5
# 8 vertices

vn 0 0 1
vn 1 0 0
vn 0 0 -1
vn -1 0 0
vn 0 1 0
vn 0 -1 0
# 6 normals

vt 0.25106826424599 0.18171811103821 0
vt 0.25097760558128 0.81852841377258 0
vt 0.458380818367 0.81852841377258 0
vt 0.45847147703171 0.18171811103821 0
vt 0.53708791732788 0.16344857215881 0
vt 0.53708791732788 0.83481466770172 0
vt 0.55410867929459 0.83481466770172 0
vt 0.55410867929459 0.16344857215881 0
vt 0.64017379283905 0.18229901790619 0
vt 0.64017379283905 0.81998705863953 0
vt 0.84806895256042 0.81998705863953 0
vt 0.84806895256042 0.18229901790619 0
vt 0.15570914745331 0.16427874565125 0
vt 0.15570914745331 0.83502811193466 0
vt 0.17142575979233 0.83487188816071 0
vt 0.17142575979233 0.16412246227264 0
vt 0.25065135955811 0.90065205097198 0
vt 0.25065135955811 0.92308497428894 0
vt 0.45839375257492 0.92308497428894 0
vt 0.45839375257492 0.90065205097198 0
vt 0.25121229887009 0.07760524749756 0
vt 0.2510162293911 0.09751105308533 0
vt 0.45865949988365 0.09751105308533 0
vt 0.45885556936264 0.07760524749756 0
# 24 texture coordinates

o Cube
usemtl Mat
f 4/3/1 2/2/1 1/1/1
f 6/7/2 4/6/2 3/5/2
f 8/11/3 6/10/3 5/9/3
f 2/15/4 8/14/4 7/13/4
f 6/19/5 8/18/5 2/17/5
f 3/23/6 1/22/6 7/21/6
f 3/4/1 4/3/1 1/1/1
f 5/8/2 6/7/2 3/5/2
f 7/12/3 8/11/3 5/9/3
f 1/16/4 2/15/4 7/13/4
f 4/20/5 6/19/5 2/17/5
f 5/24/6 3/23/6 7/21/6

